# xmcd CD database file
#
# Track frame offsets:
#	150
#	21389
#	38836
#	72662
#	107537
#	122387
#	141212
#	163262
#	183288
#	201574
#
# Disc length: 2979 seconds
#
# Revision: 2
# Processed by: cddbd v1.5.2PL0 Copyright (c) Steve Scherf et al.
# Submitted via: CDex 1.79
#
DISCID=920ba10a
DTITLE=Various Performers - This Is Venus Jazz 80 Gold Discs from 1993 To 2000. Vol. 1 [CD2]
DYEAR=2013
DGENRE=Jazz
TTITLE0=Eddie Higgins Trio - Someone To Watch Over Me
TTITLE1=Denny Zeitlin Trio - Triste
TTITLE2=Steve Kuhn Trio - No Problem
TTITLE3=Archie Shepp Quartet - Everytime We Say Goodbye
TTITLE4=Eddie Higgins Trio - Again
TTITLE5=Bill Charlap Trio - Boy, What Love Has Done To Me
TTITLE6=Richie Beirach Trio - What Is This Thing Called Love?
TTITLE7=Stanley Cowell Trio - Charleston Rag
TTITLE8=Eddie Higgins Trio - Too Marvelous For Words
TTITLE9=Steve Kuhn Trio - Quiereme Mucho
EXTD=YEAR: 2013
EXTT0=
EXTT1=
EXTT2=
EXTT3=
EXTT4=
EXTT5=
EXTT6=
EXTT7=
EXTT8=
EXTT9=
PLAYORDER=
